<svg xmlns="http://www.w3.org/2000/svg" xmlns:xlink="http://www.w3.org/1999/xlink" width="24"
  height="24" version="1.1" x="0px" y="0px" fill="#FFFFFF" viewBox="0 0 100 125"
  style="enable-background:new 0 0 100 100;" xml:space="preserve">

  
  <path d="M41.797,64.596L38,68.214l-3.797-3.618L38,59.173L41.797,64.596z"/>
  <path d="M83.086,70.291c-0.197-0.583-0.222-1.21-0.07-1.807l2.834-11.18c0.14-0.55,0.13-1.127-0.028-1.672L79.857,35.04  c-0.225-0.778-0.147-1.611,0.22-2.334l5.135-10.13c0.526-1.038,0.448-2.274-0.205-3.24l-4.713-6.973  c-0.503-0.744-1.295-1.249-2.189-1.396L60.511,8.075c-0.443-0.073-0.898-0.055-1.334,0.053l-11.524,2.842  c-0.605,0.149-1.24,0.125-1.832-0.069l-7.789-2.561c-0.736-0.242-1.534-0.219-2.254,0.065l-14.33,5.654  c-0.616,0.243-1.142,0.664-1.51,1.208l-5.441,8.05c-0.359,0.531-0.55,1.155-0.55,1.794v8.098c0,0.411,0.079,0.819,0.234,1.201  l5.681,14.009c0.401,0.989,0.283,2.108-0.316,2.994l-4.795,7.095c-0.512,0.758-0.677,1.694-0.453,2.578l2.728,10.761  c0.131,0.515,0.131,1.054,0,1.568l-2.442,9.633c-0.373,1.47,0.34,2.998,1.714,3.676l10.068,4.965  c0.455,0.224,0.957,0.341,1.466,0.341H66.07c0.216,0,0.431-0.021,0.643-0.063l14.206-2.802c1.153-0.228,2.095-1.047,2.467-2.148  l2.331-6.897c0.224-0.664,0.224-1.381,0-2.045L83.086,70.291z M30.283,36.292l5.467-2.603V22.25c0-1.242,1.008-2.25,2.25-2.25  s2.25,1.008,2.25,2.25v6.08l3.533-1.682c1.121-0.539,2.464-0.062,2.999,1.063c0.535,1.122,0.057,2.464-1.065,2.997l-5.467,2.603  V44.75c0,1.242-1.008,2.25-2.25,2.25s-2.25-1.008-2.25-2.25v-6.08l-3.533,1.682c-0.312,0.149-0.642,0.22-0.965,0.22  c-0.841,0-1.648-0.472-2.033-1.283C28.684,38.167,29.161,36.825,30.283,36.292z M46.379,79.303C45.937,79.766,45.343,80,44.75,80  c-0.558,0-1.116-0.205-1.551-0.621L38,74.428l-5.199,4.951c-0.896,0.858-2.323,0.82-3.18-0.076  c-0.857-0.899-0.823-2.326,0.078-3.182l5.039-4.799l-5.039-4.802c-0.806-0.768-0.93-2.007-0.292-2.918l6.75-9.642  c0.841-1.207,2.845-1.207,3.686,0l6.75,9.642c0.639,0.911,0.514,2.15-0.292,2.918l-5.039,4.802l5.039,4.799  C47.202,76.977,47.236,78.403,46.379,79.303z M56.899,29.674C56.334,29.249,56,28.584,56,27.875s0.334-1.374,0.899-1.799l7.5-5.625  c0.996-0.747,2.405-0.545,3.151,0.448c0.746,0.996,0.543,2.405-0.45,3.149L62,27.875l5.101,3.826C67.666,32.126,68,32.791,68,33.5  s-0.334,1.374-0.899,1.799L62,39.125l5.101,3.826c0.993,0.744,1.195,2.153,0.45,3.149C67.108,46.689,66.433,47,65.749,47  c-0.47,0-0.943-0.146-1.349-0.451l-7.5-5.625C56.334,40.499,56,39.834,56,39.125s0.334-1.374,0.899-1.799L62,33.5L56.899,29.674z   M70.301,63.307l-6.051,5.765v8.678c0,1.242-1.008,2.25-2.25,2.25s-2.25-1.008-2.25-2.25v-8.678l-6.051-5.765  c-0.901-0.858-0.935-2.282-0.078-3.182c0.858-0.896,2.282-0.935,3.18-0.076l2.949,2.808V55.25c0-1.242,1.008-2.25,2.25-2.25  s2.25,1.008,2.25,2.25v7.607l2.949-2.808c0.896-0.858,2.323-0.823,3.18,0.076S71.202,62.448,70.301,63.307z"/><text x="0" y="115" fill="#000000" font-size="5px" font-weight="bold" font-family="'Helvetica Neue', Helvetica, Arial-Unicode, Arial, Sans-serif">Created by Ayub Irawan</text><text x="0" y="120" fill="#000000" font-size="5px" font-weight="bold" font-family="'Helvetica Neue', Helvetica, Arial-Unicode, Arial, Sans-serif">from the Noun Project</text>
</svg>