<svg xmlns="http://www.w3.org/2000/svg" xmlns:xlink="http://www.w3.org/1999/xlink" version="1.1"
  x="0px" y="0px" width="24" height="24" fill="#FFFFFF" viewBox="0 0 32 40"
  style="enable-background:new 0 0 32 32;" xml:space="preserve"><g transform="translate(0, 4)"><path d="M20.15,12.16V8.415h0.35c0.553,0,1-0.448,1-1s-0.447-1-1-1h-1.011L19.49,6.41l0.25-1c0.2-0.8,0.02-1.64-0.49-2.3   C18.7,2.41,17.85,2,16.93,2h-1.86c-0.92,0-1.77,0.41-2.32,1.11c-0.51,0.66-0.69,1.5-0.49,2.3l0.25,1l0.001,0.005H11.5   c-0.552,0-1,0.448-1,1s0.448,1,1,1h0.35v3.745C8.32,13.66,6,17,6,20.65C6,25.81,10.49,30,16,30s10-4.19,10-9.35   C26,17,23.68,13.66,20.15,12.16z M16,27c-3.86,0-7-2.85-7-6.35c0-0.55,0.45-1,1-1h12c0.55,0,1,0.45,1,1C23,24.15,19.86,27,16,27z"/></g><text x="0" y="47" fill="#000000" font-size="5px" font-weight="bold" font-family="'Helvetica Neue', Helvetica, Arial-Unicode, Arial, Sans-serif">Created by Riyan Resdian</text><text x="0" y="52" fill="#000000" font-size="5px" font-weight="bold" font-family="'Helvetica Neue', Helvetica, Arial-Unicode, Arial, Sans-serif">from the Noun Project</text></svg>